<?xml version="1.0" encoding="utf-8"?>
<svg version="1.1" id="Icon" x="0px" y="0px" width="620px" height="620px" viewBox="0 0 38.359 38.4" enable-background="new 0 0 38.359 27.043" xmlns="http://www.w3.org/2000/svg" xmlns:bx="https://boxy-svg.com">
    <style type="text/css">
        .seven-logo {
            fill:#37383C;
        }
    </style>
    <path class="seven-logo" fill="#ffffff" d="M 38.08 7.846 C 37.911 7.338 37.304 6.159 35.291 6.159 L 2.544 6.159 C 1.356 6.159 0.401 6.928 0.225 8.037 C 0.105 8.873 0.477 10.042 1.863 10.557 L 13.645 16.552 C 13.39 16.886 4.288 28.907 4.288 28.907 C 3.68 29.649 3.554 30.637 3.96 31.493 C 4.366 32.322 5.231 32.859 6.167 32.859 C 6.619 32.859 7.064 32.739 7.419 32.531 C 7.502 32.492 7.57 32.448 7.579 32.435 L 36.961 10.637 C 38.494 9.597 38.206 8.242 38.08 7.846 Z M 16.484 12.756 L 15.358 14.255 L 5.191 9.042 C 5.191 9.042 11.802 9.056 12.022 9.056 C 17.893 9.056 17.345 11.243 17.334 11.299 C 17.24 11.723 16.728 12.421 16.484 12.756 Z M 18.676 14.631 C 19.219 13.917 19.835 13.107 20.154 12.222 C 20.579 11.054 20.42 9.931 19.729 9.041 L 34.244 9.041 L 8.487 28.153 L 18.676 14.631 Z" bx:origin="0.507694 0.5"/>
</svg>
