<?xml version="1.0" encoding="utf-8"?>
<!-- Generator: Adobe Illustrator 26.1.0, SVG Export Plug-In . SVG Version: 6.00 Build 0)  -->
<svg version="1.1" id="Ebene_1" xmlns="http://www.w3.org/2000/svg" xmlns:xlink="http://www.w3.org/1999/xlink" x="0px" y="0px"
	 viewBox="0 0 620 620" style="enable-background:new 0 0 620 620;" xml:space="preserve">
<style type="text/css">
	.st0{fill:#37383C;}
</style>
<g id="Ebene_2_00000016758960037019680760000017411569942540494999_">
</g>
<g id="Ebene_1_00000156561057723175699030000004871173585603878803_">
	<path class="st0" d="M170.5,441.83c0,0-1.02,71.88,0.19,106.98c37.49-22.16,83.16-53.09,122.62-79.13l43.3,0.17
		c3.65,2.18,6.16,13.43-1.43,16.95l-39.17-0.22l-130.79,87.33c-7.93,2.61-11.69-1.73-12.29-6.41l0.05-116.87
		C74.05,411,12.79,310.01,54.33,198.26C84.43,117.28,167.69,63.9,260.3,49.02c70.23-11.28,145.83,0.32,207.71,34.52
		c26.95,14.9,51.08,34.97,71.31,61.11c27.98,36.15,45.18,83.89,39.54,145.63c-1.38,15.13-11.6,55.99-17.75,57.71
		c-4.32,1.21-9.15-3.44-11.5-5.8c-3.37-3.38,4.67-15.74,6.5-22.06c7.11-24.53,7.79-47.68,6.29-69.3
		c-7.83-113.39-121.73-184.38-234.73-188.1C186.71,58.11,68.27,129,59.68,250.86C52.88,347.47,100.03,403.03,170.5,441.83z"/>
	<g>
		<path class="st0" d="M447.52,546.57c0,0,0.03-0.02,0-0.02S447.52,546.57,447.52,546.57z"/>
		<path class="st0" d="M503.8,339.85c-21.55-2.11-42.91,7.52-56.73,27.83c-13.89-20.26-34.27-29.82-55.81-27.64
			c-34.43,3.5-65.59,34.26-60.98,78.7c2.69,25.92,19.13,45.79,37.36,62.91c17.23,16.18,35.73,29.9,52.14,43.91
			c6.81,5.82,22.48,20.43,27.74,20.95c3.51-0.53,21.24-15.2,28.03-21.05c16.36-14.08,35.07-29.61,52.24-45.85
			c18.17-17.18,32.85-35.35,35.45-61.28C567.69,373.89,538.23,343.23,503.8,339.85z M544.01,421.88
			c-6.34,27.74-23.87,40.55-41.06,55.86c-20.67,18.4-39.71,32.93-55.47,47.57c-15.81-14.58-34.53-29.04-55.26-47.37
			c-17.25-15.25-36.26-29.75-42.71-57.47c-5.2-22.38,10.34-57.74,40.26-61.45c23.81-2.96,36.96,10.32,46.06,25.6
			c4.53,7.59,8.15,22.51,11.43,22.51c2.09,0,6.76-15.17,11.26-22.78c9.05-15.31,22.98-28.4,46.79-25.52
			C535.25,362.43,549.14,399.48,544.01,421.88z"/>
		<path class="st0" d="M447.27,407.12"/>
	</g>
</g>
</svg>
